<svg width="104" height="25" viewBox="0 0 104 25" fill="none" xmlns="http://www.w3.org/2000/svg">
<path d="M9.344 20.32C10.112 20.32 10.7413 20.2293 11.232 20.048C11.7333 19.856 12.1333 19.6053 12.432 19.296C12.7307 18.9867 12.9387 18.6347 13.056 18.24C13.1733 17.8347 13.232 17.4187 13.232 16.992C13.232 16.5227 13.1627 16.1013 13.024 15.728C12.8853 15.3547 12.6613 15.04 12.352 14.784C12.0427 14.5173 11.6373 14.3147 11.136 14.176C10.6453 14.0373 10.0373 13.968 9.312 13.968H5.232V20.32H9.344ZM5.232 4.432V10.704H8.384C9.056 10.704 9.65333 10.6507 10.176 10.544C10.6987 10.4267 11.136 10.2453 11.488 10C11.84 9.75467 12.1067 9.43467 12.288 9.04C12.48 8.63467 12.576 8.14933 12.576 7.584C12.576 7.008 12.496 6.51733 12.336 6.112C12.1867 5.70667 11.952 5.38133 11.632 5.136C11.312 4.89067 10.9067 4.71467 10.416 4.608C9.92533 4.49067 9.344 4.432 8.672 4.432H5.232ZM8.672 0.783998C10.2293 0.783998 11.5573 0.933332 12.656 1.232C13.7653 1.52 14.6667 1.936 15.36 2.48C16.064 3.01333 16.576 3.664 16.896 4.432C17.216 5.2 17.376 6.05867 17.376 7.008C17.376 7.54133 17.296 8.05333 17.136 8.544C16.9867 9.03467 16.7467 9.49867 16.416 9.936C16.096 10.3627 15.68 10.752 15.168 11.104C14.656 11.456 14.048 11.7547 13.344 12C14.9227 12.3733 16.0907 12.9813 16.848 13.824C17.6053 14.6667 17.984 15.76 17.984 17.104C17.984 18.0853 17.792 18.9973 17.408 19.84C17.0347 20.6827 16.4853 21.4133 15.76 22.032C15.0347 22.6507 14.1387 23.136 13.072 23.488C12.016 23.8293 10.8 24 9.424 24H0.432V0.783998H8.672ZM21.0427 4.544V10.512H28.7867V14.144H21.0427V20.24H30.9948V24H16.2107V0.783998H30.9948V4.544H21.0427ZM39.6417 15.072V24H34.8417V15.072L26.4097 0.783998H30.6337C31.0497 0.783998 31.3804 0.885332 31.6257 1.088C31.8817 1.28 32.0844 1.53067 32.2337 1.84L36.0417 9.152C36.2977 9.64267 36.5271 10.1013 36.7297 10.528C36.9431 10.9547 37.1297 11.3813 37.2897 11.808C37.4391 11.3813 37.6097 10.9547 37.8017 10.528C38.0044 10.0907 38.2284 9.632 38.4737 9.152L42.2498 1.84C42.3777 1.584 42.5697 1.344 42.8258 1.12C43.0817 0.895999 43.4124 0.783998 43.8177 0.783998H48.0737L39.6417 15.072ZM65.794 12.384C65.794 14.08 65.506 15.6533 64.93 17.104C64.3647 18.5547 63.5593 19.808 62.514 20.864C61.4793 21.92 60.2313 22.752 58.77 23.36C57.3087 23.9573 55.6873 24.256 53.906 24.256C52.1247 24.256 50.5033 23.9573 49.042 23.36C47.5807 22.752 46.3273 21.92 45.282 20.864C44.2367 19.808 43.426 18.5547 42.85 17.104C42.2847 15.6533 42.002 14.08 42.002 12.384C42.002 10.688 42.2847 9.12 42.85 7.68C43.426 6.22933 44.2367 4.976 45.282 3.92C46.3273 2.864 47.5807 2.03733 49.042 1.44C50.5033 0.831998 52.1247 0.527998 53.906 0.527998C55.6873 0.527998 57.3087 0.831998 58.77 1.44C60.2313 2.03733 61.4793 2.86933 62.514 3.936C63.5593 4.992 64.3647 6.24533 64.93 7.696C65.506 9.136 65.794 10.6987 65.794 12.384ZM60.882 12.384C60.882 11.168 60.722 10.08 60.402 9.12C60.082 8.14933 59.618 7.328 59.01 6.656C58.4127 5.97333 57.682 5.456 56.818 5.104C55.9647 4.74133 54.994 4.56 53.906 4.56C52.818 4.56 51.842 4.74133 50.978 5.104C50.114 5.456 49.378 5.97333 48.77 6.656C48.1727 7.328 47.714 8.14933 47.394 9.12C47.074 10.08 46.914 11.168 46.914 12.384C46.914 13.6107 47.074 14.7093 47.394 15.68C47.714 16.64 48.1727 17.456 48.77 18.128C49.378 18.8 50.114 19.3173 50.978 19.68C51.842 20.032 52.818 20.208 53.906 20.208C54.994 20.208 55.9647 20.032 56.818 19.68C57.682 19.3173 58.4127 18.8 59.01 18.128C59.618 17.456 60.082 16.64 60.402 15.68C60.722 14.7093 60.882 13.6107 60.882 12.384ZM83.7475 0.783998V24H81.2675C80.8942 24 80.5795 23.9413 80.3235 23.824C80.0675 23.696 79.8168 23.4827 79.5715 23.184L68.0035 8.464C68.0355 8.83733 68.0568 9.20533 68.0675 9.568C68.0888 9.93067 68.0995 10.2667 68.0995 10.576V24H63.8595V0.783998H66.3875C66.5902 0.783998 66.7608 0.794665 66.8995 0.815998C67.0488 0.826665 67.1822 0.863999 67.2995 0.927999C67.4168 0.981333 67.5288 1.056 67.6355 1.152C67.7422 1.248 67.8595 1.376 67.9875 1.536L79.6355 16.32C79.5928 15.9147 79.5608 15.5253 79.5395 15.152C79.5182 14.768 79.5075 14.4053 79.5075 14.064V0.783998H83.7475ZM103.986 12.384C103.986 14.08 103.698 15.6427 103.122 17.072C102.556 18.4907 101.751 19.712 100.706 20.736C99.6708 21.76 98.4228 22.56 96.9615 23.136C95.5002 23.712 93.8788 24 92.0975 24H83.1695V0.783998H92.0975C93.8788 0.783998 95.5002 1.072 96.9615 1.648C98.4228 2.224 99.6708 3.02933 100.706 4.064C101.751 5.088 102.556 6.30933 103.122 7.728C103.698 9.14667 103.986 10.6987 103.986 12.384ZM99.0575 12.384C99.0575 11.168 98.8975 10.0747 98.5775 9.104C98.2575 8.13333 97.7988 7.312 97.2015 6.64C96.6042 5.968 95.8735 5.45067 95.0095 5.088C94.1562 4.72533 93.1855 4.544 92.0975 4.544H88.0015V20.24H92.0975C93.1855 20.24 94.1562 20.064 95.0095 19.712C95.8735 19.3493 96.6042 18.832 97.2015 18.16C97.7988 17.4773 98.2575 16.6507 98.5775 15.68C98.8975 14.7093 99.0575 13.6107 99.0575 12.384Z" fill="#222222"/>
</svg>
