<svg width="29" height="652" viewBox="0 0 29 652" fill="none" xmlns="http://www.w3.org/2000/svg">
<path d="M14.8888 1V201" stroke="#03014C" stroke-width="2" stroke-linecap="round" stroke-linejoin="round"/>
<path d="M14.8888 465L14.8888 651" stroke="#03014C" stroke-width="2" stroke-linecap="round" stroke-linejoin="round"/>
<path d="M14.3889 242C6.44288 242 0 248.443 0 256.389C0 264.335 6.44288 270.778 14.3889 270.778C22.3349 270.778 28.7778 264.335 28.7778 256.389C28.7778 248.443 22.3349 242 14.3889 242ZM21.3039 252.846C21.3135 252.997 21.3135 253.155 21.3135 253.309C21.3135 258.024 17.7227 263.455 11.161 263.455C9.13759 263.455 7.26189 262.867 5.68168 261.855C5.97075 261.888 6.24696 261.9 6.54245 261.9C8.21259 261.9 9.74783 261.335 10.9715 260.378C9.40417 260.346 8.08733 259.318 7.63767 257.905C8.18689 257.985 8.68151 257.985 9.24679 257.841C8.43975 257.677 7.71436 257.238 7.19385 256.6C6.67335 255.962 6.38984 255.163 6.39149 254.34V254.295C6.86363 254.561 7.41927 254.725 8.00061 254.748C7.51191 254.422 7.11112 253.981 6.83379 253.463C6.55647 252.945 6.41116 252.367 6.41076 251.78C6.41076 251.115 6.5842 250.508 6.89575 249.981C7.79153 251.084 8.90933 251.986 10.1765 252.628C11.4437 253.271 12.8318 253.639 14.2508 253.71C13.7465 251.285 15.558 249.323 17.7356 249.323C18.7634 249.323 19.6884 249.753 20.3404 250.447C21.1465 250.296 21.9174 249.994 22.6047 249.589C22.3381 250.415 21.7793 251.112 21.0373 251.552C21.7568 251.475 22.4505 251.276 23.0929 250.996C22.6079 251.709 22.0009 252.342 21.3039 252.846V252.846Z" fill="#222222"/>
<path d="M14.3852 329.85C11.8859 329.85 9.84634 331.89 9.84634 334.389C9.84634 336.888 11.8859 338.928 14.3852 338.928C16.8845 338.928 18.9241 336.888 18.9241 334.389C18.9241 331.89 16.8845 329.85 14.3852 329.85ZM27.9985 334.389C27.9985 332.509 28.0155 330.647 27.9099 328.771C27.8044 326.591 27.3073 324.657 25.7137 323.064C24.1168 321.467 22.1861 320.973 20.0069 320.867C18.1273 320.762 16.2648 320.779 14.3886 320.779C12.5091 320.779 10.6465 320.762 8.77035 320.867C6.59114 320.973 4.6571 321.47 3.06355 323.064C1.4666 324.661 0.97287 326.591 0.867314 328.771C0.761759 330.65 0.778784 332.513 0.778784 334.389C0.778784 336.265 0.761759 338.131 0.867314 340.007C0.97287 342.187 1.47 344.121 3.06355 345.714C4.6605 347.311 6.59114 347.805 8.77035 347.911C10.6499 348.016 12.5125 347.999 14.3886 347.999C16.2682 347.999 18.1307 348.016 20.0069 347.911C22.1861 347.805 24.1202 347.308 25.7137 345.714C27.3107 344.117 27.8044 342.187 27.9099 340.007C28.0189 338.131 27.9985 336.269 27.9985 334.389ZM14.3852 341.373C10.5205 341.373 7.40154 338.254 7.40154 334.389C7.40154 330.524 10.5205 327.405 14.3852 327.405C18.2499 327.405 21.3689 330.524 21.3689 334.389C21.3689 338.254 18.2499 341.373 14.3852 341.373ZM21.6549 328.75C20.7526 328.75 20.0239 328.021 20.0239 327.119C20.0239 326.217 20.7526 325.488 21.6549 325.488C22.5573 325.488 23.2859 326.217 23.2859 327.119C23.2862 327.333 23.2442 327.546 23.1623 327.744C23.0805 327.942 22.9603 328.122 22.8088 328.273C22.6573 328.425 22.4774 328.545 22.2794 328.627C22.0814 328.708 21.8692 328.75 21.6549 328.75Z" fill="#222222"/>
<path d="M28 411.255C28 403.938 22.0764 398 14.7778 398C7.4791 398 1.55554 403.938 1.55554 411.255C1.55554 417.671 6.10399 423.013 12.1333 424.246V415.232H9.48888V411.255H12.1333V407.942C12.1333 405.383 14.2092 403.302 16.7611 403.302H20.0667V407.279H17.4222C16.695 407.279 16.1 407.875 16.1 408.604V411.255H20.0667V415.232H16.1V424.444C22.7772 423.782 28 418.135 28 411.255Z" fill="#222222"/>
</svg>
