<svg width="138" height="15" viewBox="0 0 138 15" fill="none" xmlns="http://www.w3.org/2000/svg">
<path d="M0.959393 1.14541H4.95822C6.66907 1.14541 7.96393 1.38563 8.84279 1.86608C9.72166 2.34652 10.1611 3.19023 10.1611 4.3972C10.1611 4.88351 10.082 5.32294 9.92379 5.7155C9.77146 6.10806 9.54881 6.43031 9.25586 6.68225C8.9629 6.93419 8.6055 7.09824 8.18365 7.17441V7.2623C8.61136 7.35018 8.99806 7.50252 9.34374 7.7193C9.68943 7.93023 9.96481 8.24076 10.1699 8.6509C10.3808 9.05518 10.4863 9.59421 10.4863 10.268C10.4863 11.0473 10.2958 11.7152 9.91501 12.2718C9.53416 12.8284 8.98927 13.2561 8.28032 13.555C7.57723 13.8479 6.73938 13.9944 5.76677 13.9944H0.959393V1.14541ZM3.68387 6.23403H5.26582C6.0568 6.23403 6.60462 6.11098 6.90929 5.8649C7.21397 5.61296 7.3663 5.24384 7.3663 4.75754C7.3663 4.26537 7.18467 3.91383 6.82141 3.7029C6.464 3.48611 5.89567 3.37772 5.11641 3.37772H3.68387V6.23403ZM3.68387 8.39603V11.7445H5.45917C6.27944 11.7445 6.8507 11.5863 7.17295 11.2699C7.4952 10.9535 7.65633 10.5287 7.65633 9.99556C7.65633 9.67917 7.58602 9.40086 7.4454 9.16064C7.30478 8.92042 7.06749 8.73293 6.73352 8.59817C6.40541 8.46341 5.95133 8.39603 5.37128 8.39603H3.68387ZM20.4526 13.9944H13.0525V1.14541H20.4526V3.37772H15.777V6.19887H20.1274V8.43118H15.777V11.7445H20.4526V13.9944ZM27.1407 6.43616L29.8212 1.14541H32.7567L28.4942 8.99366V13.9944H25.7873V9.08154L21.5248 1.14541H24.4778L27.1407 6.43616ZM46.0363 7.55232C46.0363 8.54251 45.9132 9.4448 45.6671 10.2592C45.4211 11.0678 45.0461 11.765 44.5422 12.3509C44.0442 12.9368 43.4114 13.388 42.6439 13.7044C41.8763 14.0149 40.9682 14.1702 39.9194 14.1702C38.8706 14.1702 37.9625 14.0149 37.1949 13.7044C36.4274 13.388 35.7917 12.9368 35.2878 12.3509C34.7898 11.765 34.4177 11.0648 34.1716 10.2504C33.9255 9.43602 33.8025 8.53079 33.8025 7.53474C33.8025 6.20473 34.0193 5.04756 34.4529 4.06323C34.8923 3.07305 35.5661 2.30551 36.4742 1.76061C37.3824 1.21572 38.5366 0.943271 39.937 0.943271C41.3314 0.943271 42.4769 1.21572 43.3733 1.76061C44.2756 2.30551 44.9436 3.07305 45.3771 4.06323C45.8166 5.05342 46.0363 6.21645 46.0363 7.55232ZM36.6588 7.55232C36.6588 8.44876 36.7701 9.22216 36.9928 9.87252C37.2213 10.517 37.5758 11.015 38.0562 11.3666C38.5366 11.7123 39.1577 11.8851 39.9194 11.8851C40.6928 11.8851 41.3197 11.7123 41.8002 11.3666C42.2806 11.015 42.6292 10.517 42.846 9.87252C43.0686 9.22216 43.18 8.44876 43.18 7.55232C43.18 6.20473 42.928 5.14424 42.4241 4.37084C41.9203 3.59744 41.0912 3.21074 39.937 3.21074C39.1694 3.21074 38.5425 3.38651 38.0562 3.73806C37.5758 4.08374 37.2213 4.58176 36.9928 5.23212C36.7701 5.87662 36.6588 6.65002 36.6588 7.55232ZM60.0981 13.9944H56.6354L51.0458 4.27416H50.9667C50.9901 4.67844 51.0106 5.08565 51.0282 5.49578C51.0458 5.90592 51.0634 6.31605 51.0809 6.72619C51.0985 7.13047 51.1161 7.53767 51.1337 7.94781V13.9944H48.6992V1.14541H52.1356L57.7164 10.769H57.7779C57.7662 10.3705 57.7515 9.97505 57.7339 9.58249C57.7164 9.18993 57.6988 8.79738 57.6812 8.40482C57.6695 8.01226 57.6578 7.6197 57.646 7.22714V1.14541H60.0981V13.9944ZM74.0017 7.44686C74.0017 8.89405 73.7234 10.104 73.1668 11.0766C72.616 12.0433 71.8162 12.7728 70.7675 13.2649C69.7187 13.7512 68.4561 13.9944 66.9796 13.9944H63.3411V1.14541H67.3751C68.7226 1.14541 69.8915 1.38563 70.8817 1.86608C71.8719 2.34066 72.6394 3.04668 73.1843 3.98414C73.7292 4.91573 74.0017 6.06997 74.0017 7.44686ZM71.1717 7.51717C71.1717 6.56799 71.0311 5.78874 70.7499 5.17939C70.4745 4.56419 70.0644 4.11011 69.5195 3.81715C68.9804 3.5242 68.3125 3.37772 67.5157 3.37772H66.0656V11.7445H67.2344C68.5645 11.7445 69.5517 11.39 70.1962 10.6811C70.8466 9.97212 71.1717 8.91749 71.1717 7.51717ZM86.7804 13.9944L83.6868 3.91383H83.6077C83.6194 4.15405 83.637 4.51731 83.6604 5.00362C83.6897 5.48406 83.7161 5.99673 83.7395 6.54163C83.7629 7.08652 83.7746 7.57869 83.7746 8.01812V13.9944H81.3402V1.14541H85.049L88.0899 10.9711H88.1426L91.368 1.14541H95.0768V13.9944H92.5369V7.91265C92.5369 7.50838 92.5428 7.04258 92.5545 6.51526C92.5721 5.98794 92.5926 5.48699 92.616 5.01241C92.6394 4.53196 92.657 4.17163 92.6687 3.93141H92.5896L89.2763 13.9944H86.7804ZM108.778 1.14541V9.45945C108.778 10.3442 108.582 11.1439 108.189 11.8587C107.803 12.5677 107.214 13.1302 106.423 13.5462C105.638 13.9622 104.648 14.1702 103.452 14.1702C101.753 14.1702 100.458 13.7366 99.5678 12.8694C98.6772 12.0023 98.2319 10.8539 98.2319 9.4243V1.14541H100.948V9.01123C100.948 10.0717 101.164 10.8158 101.598 11.2435C102.032 11.6713 102.673 11.8851 103.523 11.8851C104.12 11.8851 104.604 11.7826 104.973 11.5775C105.348 11.3724 105.623 11.0561 105.799 10.6283C105.975 10.2006 106.063 9.65573 106.063 8.99366V1.14541H108.778ZM119.509 10.4262C119.509 11.1879 119.325 11.85 118.956 12.4124C118.586 12.9749 118.047 13.4085 117.338 13.7131C116.635 14.0178 115.78 14.1702 114.772 14.1702C114.327 14.1702 113.89 14.1409 113.463 14.0823C113.041 14.0237 112.634 13.9387 112.241 13.8274C111.854 13.7102 111.485 13.5667 111.134 13.3968V10.8656C111.743 11.1352 112.376 11.3783 113.032 11.5951C113.688 11.8119 114.339 11.9203 114.983 11.9203C115.428 11.9203 115.786 11.8617 116.055 11.7445C116.331 11.6273 116.53 11.4662 116.653 11.2611C116.776 11.0561 116.837 10.8217 116.837 10.558C116.837 10.2358 116.729 9.9604 116.512 9.7319C116.295 9.5034 115.997 9.28954 115.616 9.09033C115.241 8.89112 114.816 8.67726 114.341 8.44876C114.043 8.30814 113.717 8.13823 113.366 7.93902C113.014 7.73395 112.68 7.48494 112.364 7.19199C112.048 6.89903 111.787 6.54456 111.582 6.12856C111.383 5.70671 111.283 5.20283 111.283 4.61692C111.283 3.84938 111.459 3.19316 111.81 2.64827C112.162 2.10337 112.663 1.68738 113.313 1.40028C113.969 1.10733 114.743 0.960849 115.633 0.960849C116.301 0.960849 116.937 1.03995 117.541 1.19814C118.15 1.35048 118.786 1.57312 119.448 1.86608L118.569 3.98414C117.977 3.74391 117.447 3.55935 116.978 3.43045C116.509 3.29569 116.032 3.22831 115.546 3.22831C115.206 3.22831 114.916 3.28398 114.675 3.3953C114.435 3.50076 114.254 3.6531 114.131 3.85231C114.008 4.04566 113.946 4.27123 113.946 4.52903C113.946 4.8337 114.034 5.0915 114.21 5.30243C114.391 5.5075 114.661 5.70671 115.018 5.90006C115.381 6.09341 115.833 6.31898 116.372 6.57678C117.028 6.88731 117.587 7.21249 118.05 7.55232C118.519 7.88629 118.879 8.28178 119.131 8.73878C119.383 9.18993 119.509 9.75241 119.509 10.4262ZM121.838 13.9944V1.14541H124.563V13.9944H121.838ZM133.255 3.22831C132.733 3.22831 132.27 3.33085 131.866 3.53592C131.468 3.73513 131.131 4.02515 130.855 4.40599C130.586 4.78683 130.381 5.24677 130.24 5.78581C130.099 6.32484 130.029 6.93126 130.029 7.60505C130.029 8.51321 130.141 9.28954 130.363 9.93404C130.592 10.5727 130.943 11.0619 131.418 11.4017C131.892 11.7357 132.505 11.9027 133.255 11.9027C133.776 11.9027 134.298 11.8441 134.819 11.7269C135.346 11.6097 135.918 11.4428 136.533 11.226V13.511C135.964 13.7454 135.405 13.9124 134.854 14.012C134.303 14.1174 133.685 14.1702 133 14.1702C131.676 14.1702 130.586 13.8977 129.73 13.3528C128.881 12.8021 128.251 12.0345 127.841 11.0502C127.431 10.06 127.226 8.90577 127.226 7.58747C127.226 6.61487 127.357 5.72429 127.621 4.91573C127.885 4.10718 128.271 3.40702 128.781 2.81525C129.291 2.22348 129.921 1.76647 130.671 1.44422C131.421 1.12197 132.282 0.960849 133.255 0.960849C133.893 0.960849 134.532 1.04288 135.171 1.20693C135.815 1.36513 136.43 1.58484 137.016 1.86608L136.137 4.08081C135.657 3.85231 135.173 3.6531 134.687 3.48319C134.201 3.31327 133.723 3.22831 133.255 3.22831Z" fill="#353535"/>
</svg>
