<svg width="120" height="15" viewBox="0 0 120 15" fill="none" xmlns="http://www.w3.org/2000/svg">
<path fill-rule="evenodd" clip-rule="evenodd" d="M15.3039 5.00035L10.8977 4.59837C10.62 4.57401 10.38 4.40347 10.2665 4.14767L8.68828 0.456792C8.43577 -0.152264 7.53924 -0.152264 7.28673 0.456792L5.72118 4.14767C5.62017 4.40347 5.36767 4.57401 5.08991 4.59837L0.68364 5.00035C0.027119 5.06125 -0.238015 5.85303 0.254376 6.27937L3.57486 9.0932C3.78949 9.27592 3.87787 9.5439 3.81474 9.81189L2.81733 13.7584C2.66583 14.3798 3.36023 14.8913 3.941 14.5625L7.61499 12.4794C7.85487 12.3454 8.14526 12.3454 8.38514 12.4794L12.0593 14.5625C12.64 14.8913 13.3344 14.392 13.1828 13.7584L12.198 9.81189C12.1349 9.5439 12.2233 9.27592 12.4379 9.0932L15.7584 6.27937C16.2381 5.85303 15.9604 5.06125 15.3039 5.00035V5.00035Z" fill="#F7B500"/>
<path fill-rule="evenodd" clip-rule="evenodd" d="M41.3039 5.00035L36.8977 4.59837C36.62 4.57401 36.38 4.40347 36.2665 4.14767L34.6883 0.456792C34.4358 -0.152264 33.5392 -0.152264 33.2867 0.456792L31.7212 4.14767C31.6202 4.40347 31.3677 4.57401 31.0899 4.59837L26.6836 5.00035C26.0271 5.06125 25.762 5.85303 26.2544 6.27937L29.5749 9.0932C29.7895 9.27592 29.8779 9.5439 29.8147 9.81189L28.8173 13.7584C28.6658 14.3798 29.3602 14.8913 29.941 14.5625L33.615 12.4794C33.8549 12.3454 34.1453 12.3454 34.3851 12.4794L38.0593 14.5625C38.64 14.8913 39.3344 14.392 39.1828 13.7584L38.198 9.81189C38.1349 9.5439 38.2233 9.27592 38.4379 9.0932L41.7584 6.27937C42.2381 5.85303 41.9604 5.06125 41.3039 5.00035V5.00035Z" fill="#F7B500"/>
<path fill-rule="evenodd" clip-rule="evenodd" d="M67.3039 5.00035L62.8977 4.59837C62.62 4.57401 62.38 4.40347 62.2665 4.14767L60.6883 0.456792C60.4358 -0.152264 59.5392 -0.152264 59.2867 0.456792L57.7212 4.14767C57.6202 4.40347 57.3677 4.57401 57.0899 4.59837L52.6836 5.00035C52.0271 5.06125 51.762 5.85303 52.2544 6.27937L55.5749 9.0932C55.7895 9.27592 55.8779 9.5439 55.8147 9.81189L54.8173 13.7584C54.6658 14.3798 55.3602 14.8913 55.941 14.5625L59.615 12.4794C59.8549 12.3454 60.1453 12.3454 60.3851 12.4794L64.0593 14.5625C64.64 14.8913 65.3344 14.392 65.1828 13.7584L64.198 9.81189C64.1349 9.5439 64.2233 9.27592 64.4379 9.0932L67.7584 6.27937C68.2381 5.85303 67.9604 5.06125 67.3039 5.00035V5.00035Z" fill="#F7B500"/>
<path fill-rule="evenodd" clip-rule="evenodd" d="M93.3039 5.00035L88.8977 4.59837C88.62 4.57401 88.38 4.40347 88.2665 4.14767L86.6883 0.456792C86.4358 -0.152264 85.5392 -0.152264 85.2867 0.456792L83.7212 4.14767C83.6202 4.40347 83.3677 4.57401 83.0899 4.59837L78.6836 5.00035C78.0271 5.06125 77.762 5.85303 78.2544 6.27937L81.5749 9.0932C81.7895 9.27592 81.8779 9.5439 81.8147 9.81189L80.8173 13.7584C80.6658 14.3798 81.3602 14.8913 81.941 14.5625L85.615 12.4794C85.8549 12.3454 86.1453 12.3454 86.3851 12.4794L90.0593 14.5625C90.64 14.8913 91.3344 14.392 91.1828 13.7584L90.198 9.81189C90.1349 9.5439 90.2233 9.27592 90.4379 9.0932L93.7584 6.27937C94.2381 5.85303 93.9604 5.06125 93.3039 5.00035V5.00035Z" fill="#F7B500"/>
<path fill-rule="evenodd" clip-rule="evenodd" d="M119.304 5.00035L114.898 4.59837C114.62 4.57401 114.38 4.40347 114.266 4.14767L112.688 0.456792C112.436 -0.152264 111.539 -0.152264 111.287 0.456792L109.721 4.14767C109.62 4.40347 109.368 4.57401 109.09 4.59837L104.684 5.00035C104.027 5.06125 103.762 5.85303 104.254 6.27937L107.575 9.0932C107.789 9.27592 107.878 9.5439 107.815 9.81189L106.817 13.7584C106.666 14.3798 107.36 14.8913 107.941 14.5625L111.615 12.4794C111.855 12.3454 112.145 12.3454 112.385 12.4794L116.059 14.5625C116.64 14.8913 117.334 14.392 117.183 13.7584L116.198 9.81189C116.135 9.5439 116.223 9.27592 116.438 9.0932L119.758 6.27937C120.238 5.85303 119.96 5.06125 119.304 5.00035V5.00035Z" fill="black" fill-opacity="0.2"/>
</svg>
